<?xml version="1.0" encoding="UTF-8" standalone="no"?>
<!-- Created with Inkscape (http://www.inkscape.org/) -->

<svg
   xmlns:dc="http://purl.org/dc/elements/1.1/"
   xmlns:cc="http://creativecommons.org/ns#"
   xmlns:rdf="http://www.w3.org/1999/02/22-rdf-syntax-ns#"
   xmlns:svg="http://www.w3.org/2000/svg"
   xmlns="http://www.w3.org/2000/svg"
   xmlns:sodipodi="http://sodipodi.sourceforge.net/DTD/sodipodi-0.dtd"
   xmlns:inkscape="http://www.inkscape.org/namespaces/inkscape"
   width="210mm"
   height="297mm"
   viewBox="0 0 210 297"
   version="1.1"
   id="svg8"
   inkscape:version="0.92.4 (5da689c313, 2019-01-14)"
   sodipodi:docname="run.svg">
  <defs
     id="defs2" />
  <sodipodi:namedview
     id="base"
     pagecolor="#ffffff"
     bordercolor="#666666"
     borderopacity="1.0"
     inkscape:pageopacity="0.0"
     inkscape:pageshadow="2"
     inkscape:zoom="0.49497475"
     inkscape:cx="1407.3365"
     inkscape:cy="347.2864"
     inkscape:document-units="mm"
     inkscape:current-layer="layer1"
     showgrid="false"
     inkscape:snap-page="false"
     inkscape:window-width="1920"
     inkscape:window-height="1017"
     inkscape:window-x="1912"
     inkscape:window-y="275"
     inkscape:window-maximized="1" />
  <metadata
     id="metadata5">
    <rdf:RDF>
      <cc:Work
         rdf:about="">
        <dc:format>image/svg+xml</dc:format>
        <dc:type
           rdf:resource="http://purl.org/dc/dcmitype/StillImage" />
        <dc:title></dc:title>
      </cc:Work>
    </rdf:RDF>
  </metadata>
  <g
     inkscape:label="Layer 1"
     inkscape:groupmode="layer"
     id="layer1">
    <path
       style="fill:#0000ff;fill-opacity:1;stroke:#000000;stroke-width:0.71428573;stroke-opacity:1"
       d=""
       id="path4608"
       inkscape:connector-curvature="0"
       transform="scale(0.26458333)" />
    <path
       style="fill:#0000ff;fill-opacity:1;stroke:#000000;stroke-width:0.71428573;stroke-opacity:1"
       d=""
       id="path4610"
       inkscape:connector-curvature="0"
       transform="scale(0.26458333)" />
    <path
       style="fill:#0000ff;fill-opacity:1;stroke:#000000;stroke-width:0.71428573;stroke-opacity:1"
       d=""
       id="path4612"
       inkscape:connector-curvature="0"
       transform="scale(0.26458333)" />
    <path
       id="path4624"
       style="fill:#0000ff;fill-opacity:1;stroke:#000000;stroke-width:0.1889881;stroke-opacity:1"
       d="m 101.70542,212.6738 c -0.3638,-0.0372 -1.767036,-0.20088 -3.118303,-0.36382 -15.465438,-1.86485 -31.248098,-8.57123 -41.607432,-17.67986 -2.414265,-2.12279 -9.618596,-9.4351 -11.329564,-11.49939 -7.739414,-9.3376 -13.71073,-22.57874 -16.022754,-35.52976 -0.678312,-3.79963 -0.856853,-5.92241 -0.993444,-11.81175 -0.13117,-5.65566 0.08529,-9.94163 0.691991,-13.70164 2.08275,-12.90772 7.192026,-25.164952 14.613205,-35.057289 3.424166,-4.56437 10.292101,-11.550692 15.208413,-15.470574 9.085549,-7.244096 21.935514,-12.863166 35.09286,-15.3455 2.543452,-0.479861 2.974922,-0.503068 11.150298,-0.599699 10.76882,-0.127283 12.87003,0.06617 20.31622,1.870498 11.3397,2.747783 22.23505,8.119258 30.93332,15.250332 7.4158,6.07967 13.3037,12.813879 17.86202,20.429447 5.09246,8.507955 8.26319,16.788875 10.06135,26.276955 3.21551,16.96677 0.76607,34.43583 -7.00212,49.93806 -7.33158,14.63097 -19.89209,27.29632 -34.3961,34.68321 -8.10253,4.12663 -18.39136,7.25759 -26.81338,8.15951 -4.1959,0.44934 -12.23944,0.69717 -14.64658,0.45127 z m 11.24479,-13.10794 c 5.19953,-0.34845 10.06505,-1.35215 15.40253,-3.17737 18.57509,-6.35199 32.87941,-20.00609 40.12251,-38.29868 4.93211,-12.45616 5.92596,-26.56868 2.78161,-39.49851 -2.22658,-9.15586 -6.33221,-17.64158 -12.20696,-25.229909 -2.1772,-2.812264 -8.61225,-9.246695 -11.42037,-11.419278 -9.5533,-7.391186 -20.80458,-12.006247 -32.78943,-13.44961 -3.17795,-0.382728 -10.02437,-0.426781 -14.07962,-0.0906 -7.55318,0.626166 -14.906872,2.709117 -22.395088,6.34346 -13.233016,6.422538 -23.868049,17.022778 -30.338043,30.238797 -2.679038,5.47237 -4.440147,10.76978 -5.78023,17.3869 -0.870254,4.29719 -1.067803,16.09265 -0.349748,20.88319 1.788883,11.93463 6.831254,23.418 14.220801,32.38611 2.810725,3.41115 9.01224,9.27788 12.655008,11.97183 4.317812,3.19318 12.309596,7.18082 18.264367,9.11334 3.609009,1.17125 8.978053,2.36522 13.061473,2.90463 1.21518,0.16052 10.16462,0.11575 12.85119,-0.0643 z m -11.0558,13.29688 c -1.85233,-0.1352 -5.895423,-0.68344 -8.315477,-1.12757 -12.632385,-2.31829 -24.910782,-7.66909 -34.320262,-14.95642 -3.254656,-2.52062 -9.955091,-9.10097 -13.512202,-13.27004 -8.239879,-9.65745 -14.684113,-24.39755 -16.690009,-38.17559 -0.773615,-5.31378 -0.884878,-16.08358 -0.218504,-21.15024 1.686568,-12.82355 6.592433,-25.517707 13.764088,-35.615238 2.351373,-3.310681 4.301479,-5.596827 7.981244,-9.356559 5.092967,-5.203647 8.728424,-8.285453 13.230021,-11.215203 8.954783,-5.82799 19.521299,-9.965438 30.616072,-11.988101 2.773794,-0.505682 3.024005,-0.518372 11.622769,-0.58941 9.79531,-0.08092 10.49177,-0.03391 16.06399,1.084294 10.95392,2.198185 20.64284,6.232435 29.61281,12.330121 7.39684,5.02829 14.82838,12.345839 20.01641,19.70941 3.26735,4.63746 6.78848,11.127086 8.75542,16.136676 5.94597,15.14375 7.21973,31.31925 3.68216,46.75987 -3.29263,14.37149 -10.1243,26.94133 -20.39493,37.52533 -12.34228,12.71887 -28.02294,20.65657 -45.95663,23.2637 -3.82955,0.55673 -12.3552,0.89641 -15.93697,0.63497 z m 11.81176,-13.49696 c 3.13725,-0.23031 6.03061,-0.70279 9.20802,-1.50364 20.00944,-5.0433 36.07516,-18.531 44.33532,-37.22099 4.73816,-10.72088 6.45295,-21.57312 5.31553,-33.63988 -1.24907,-13.25124 -7.40289,-27.03083 -16.45801,-36.852677 -6.38541,-6.926074 -11.94258,-11.180995 -19.6278,-15.028275 -9.75827,-4.885065 -20.52162,-7.240844 -31.08854,-6.804363 -6.815437,0.281522 -9.59513,0.647914 -14.363094,1.893199 -18.751756,4.897538 -34.132242,17.30647 -42.691182,34.443126 -2.86049,5.72725 -4.829363,11.7404 -6.087589,18.59215 -0.458806,2.49845 -0.506497,3.23894 -0.591883,9.19011 -0.103865,7.23909 0.03479,9.32721 0.911733,13.7306 2.18698,10.98147 6.520312,20.4551 13.148082,28.74461 3.05475,3.82066 8.993211,9.50813 13.096513,12.54299 4.842316,3.58145 13.222461,7.67056 19.570072,9.54925 3.956487,1.17099 9.144217,2.20916 12.831508,2.56784 1.96463,0.19111 8.58084,0.083 12.49132,-0.20405 z m -12.66221,13.61494 c -14.436186,-1.48033 -27.102584,-5.95761 -38.493592,-13.60659 -3.399131,-2.28249 -5.56228,-4.08712 -9.389671,-7.83342 -4.867561,-4.76444 -7.318494,-7.44084 -9.526476,-10.40284 -6.108949,-8.19513 -10.546673,-17.61867 -13.179507,-27.98676 -1.72661,-6.7994 -2.257372,-11.44989 -2.262992,-19.82821 -0.0033,-4.94611 0.243229,-8.14564 0.945859,-12.27475 2.217282,-13.0302 7.560691,-25.360566 15.265151,-35.225608 3.234608,-4.141695 8.985679,-9.978408 13.646441,-13.849654 9.983372,-8.29223 25.221001,-14.736813 39.079701,-16.528322 1.852203,-0.239432 4.158036,-0.315542 10.057206,-0.33196 8.22762,-0.02289 8.90862,0.02994 14.64657,1.136534 21.8503,4.213923 40.73204,17.078809 52.38916,35.694842 6.45598,10.309978 10.30965,21.505248 11.67203,33.908248 2.12467,19.34296 -3.45977,39.70088 -15.16789,55.29413 -13.45052,17.91383 -32.74363,28.94206 -55.22849,31.56941 -3.01863,0.35272 -11.99317,0.51724 -14.4535,0.26495 z m 9.78621,-13.59699 c 4.42954,-0.19797 6.93298,-0.50188 10.31053,-1.25168 14.83792,-3.29395 27.85064,-11.35764 37.25072,-23.08343 6.43323,-8.02491 11.10814,-18.11455 13.22875,-28.55108 1.33788,-6.58429 1.48585,-15.56782 0.37622,-22.84153 -1.65061,-10.81994 -6.55337,-21.91278 -13.52317,-30.59709 -1.95452,-2.435323 -7.08942,-7.680963 -9.34817,-9.549784 -7.91667,-6.550003 -17.30123,-11.222474 -27.04375,-13.464791 -3.79544,-0.873548 -6.10797,-1.201589 -10.398,-1.474996 -4.31061,-0.274717 -11.896853,0.02222 -15.175384,0.594021 -19.081147,3.327794 -35.600656,14.532073 -45.466203,30.83723 -4.678725,7.7327 -7.681312,16.29966 -8.999665,25.67776 -0.398835,2.8371 -0.44709,12.18342 -0.08099,15.68601 0.773848,7.40353 3.641675,16.66249 7.258497,23.43452 3.628268,6.79345 7.646889,11.88063 14.211411,17.99023 4.340212,4.03944 8.29782,6.7713 13.884775,9.58438 6.467245,3.2563 12.110558,5.12832 19.154785,6.35407 5.032914,0.87577 7.215044,0.97548 14.359644,0.65616 z m -8.65228,13.85209 C 98.0779,212.9543 91.340982,211.80781 86.810902,210.62067 76.460588,207.90828 66.083989,202.71696 57.76569,196.08958 55.389933,194.19677 47.901111,186.72716 45.659712,184.01467 37.583089,174.24051 31.97529,162.2554 29.331486,149.11763 c -0.992814,-4.93356 -1.178835,-6.85914 -1.280832,-13.25837 -0.109476,-6.8683 0.07784,-9.99848 0.884814,-14.78573 2.341021,-13.88777 8.157306,-26.782615 16.73438,-37.100531 3.278788,-3.944268 9.158663,-9.689886 13.259393,-12.956638 10.104503,-8.049517 25.346397,-14.263968 38.807431,-15.822631 2.804508,-0.324736 13.294028,-0.466987 16.350208,-0.221729 7.04309,0.565206 15.24811,2.506263 22.20336,5.252638 24.33664,9.609651 42.40756,30.612027 48.18739,56.004311 4.06423,17.85521 2.02942,35.82643 -5.93803,52.4442 -4.92352,10.269 -12.68095,19.93466 -22.00651,27.4198 -13.85299,11.11909 -32.12018,17.41971 -49.98867,17.24182 -1.88187,-0.0187 -3.84681,-0.0633 -4.36653,-0.099 z m 9.82738,-14.03873 c 3.99907,-0.20211 6.82353,-0.62363 10.80581,-1.61263 14.73491,-3.65945 27.53761,-12.07769 36.59439,-24.06215 6.48202,-8.57737 10.98019,-19.32192 12.6296,-30.16762 0.48345,-3.17893 0.67922,-11.1313 0.37002,-15.0305 -1.00583,-12.68438 -6.00531,-25.15318 -14.16624,-35.330905 -1.79635,-2.240272 -6.36409,-6.946625 -8.62495,-8.88668 -10.28738,-8.827643 -23.81722,-14.459754 -36.85268,-15.340782 -4.30073,-0.290674 -12.01472,-0.09825 -15.119041,0.37715 -21.538784,3.298452 -40.119003,16.968647 -49.408555,36.351817 -3.53309,7.37198 -5.599952,14.83338 -6.268403,22.62902 -0.326006,3.80196 -0.118795,11.88115 0.39048,15.22493 1.828562,12.00587 6.845911,23.37859 14.159876,32.09589 2.168485,2.58455 7.798125,8.16563 10.038061,9.95147 6.850279,5.46153 15.985432,9.92699 24.882205,12.16295 2.228768,0.56014 7.076286,1.42181 9.513627,1.69109 1.37148,0.15153 7.59938,0.12165 11.0558,-0.053 z m -11.40965,14.06699 C 86.738176,211.8917 74.456253,207.63352 63.438413,200.38156 58.592513,197.19198 55.779011,194.86623 51.215742,190.27779 44.95886,183.9864 41.449575,179.38262 37.469286,172.244 c -4.881639,-8.75519 -8.583821,-20.80802 -9.456047,-30.78514 -0.304876,-3.48738 -0.255153,-12.9646 0.0833,-15.87616 C 29.764017,111.23794 34.8389,98.136374 43.033826,87.019853 47.222042,81.338482 53.996439,74.521754 59.889348,70.059008 68.432754,63.589015 80.069047,58.394093 91.059442,56.143394 96.8541,54.956716 98.620175,54.777125 105.5268,54.672213 c 7.12025,-0.10816 9.5888,0.04185 14.60496,0.88752 17.58369,2.964408 33.22951,11.371059 45.32927,24.355854 5.38189,5.775547 10.02673,12.621418 13.5466,19.965894 7.59173,15.840699 9.70864,34.920049 5.73329,51.673129 -3.1852,13.42321 -8.98227,24.82334 -17.59437,34.59993 -9.40502,10.67672 -20.08413,17.96485 -33.31315,22.7351 -10.37343,3.74054 -22.93934,5.39435 -33.23778,4.37444 z m 12.8542,-14.25861 c 7.18784,-0.51833 15.73612,-2.95644 22.85255,-6.51791 3.23905,-1.62101 4.64998,-2.44092 7.43711,-4.3218 9.32452,-6.29261 16.76033,-14.74294 21.72559,-24.68979 3.27412,-6.559 5.41345,-13.291 6.44021,-20.2659 0.70993,-4.82267 0.71154,-13.19882 0.004,-18.28767 -1.729,-12.42686 -7.02443,-24.0652 -15.3061,-33.639877 -1.77919,-2.056976 -5.42523,-5.678937 -7.36676,-7.318113 -9.68831,-8.179559 -21.77293,-13.429877 -34.27848,-14.892729 -2.84783,-0.333129 -12.15363,-0.380719 -14.91312,-0.07627 -12.173252,1.343059 -24.007361,6.253032 -33.647497,13.960355 -12.419356,9.929315 -20.675438,23.785674 -23.541251,39.509794 -1.251263,6.86541 -1.287415,15.58943 -0.09312,22.47103 1.914017,11.02873 6.488343,21.24903 13.320387,29.76143 1.891522,2.35674 7.34305,7.90374 9.714838,9.88496 8.578974,7.16627 20.600588,12.47889 31.75,14.03104 1.50718,0.20982 2.952933,0.41474 3.212793,0.45536 1.01422,0.15857 10.24917,0.11205 12.68934,-0.0639 z m -10.70496,14.61677 c -2.56342,-0.20692 -5.230628,-0.503 -7.386723,-0.81997 -14.492642,-2.13056 -28.885843,-8.67736 -39.781381,-18.09471 -2.719602,-2.35063 -8.621739,-8.41204 -10.607993,-10.89424 -9.450922,-11.81074 -15.255192,-25.90829 -17.066175,-41.45071 -0.35732,-3.06663 -0.420206,-13.06452 -0.10019,-15.9283 1.400617,-12.53395 4.987999,-23.36589 11.112614,-33.554058 3.3586,-5.58696 6.335527,-9.385112 11.353654,-14.485702 6.998735,-7.113746 12.603665,-11.259296 20.91518,-15.469399 8.63836,-4.375666 17.658543,-7.056686 27.633451,-8.213344 3.600623,-0.417517 13.136933,-0.417517 16.737563,0 21.80612,2.52857 40.61945,12.90913 54.21744,29.915363 4.32009,5.402887 8.91772,13.364962 11.50293,19.92053 5.35318,13.57457 6.91748,28.38611 4.51708,42.76979 -0.53591,3.21131 -1.91945,8.71385 -3.01828,12.00414 -2.60573,7.80251 -6.9349,16.03221 -11.87456,22.5734 -4.26334,5.64559 -10.78485,12.12903 -16.27738,16.18233 -13.78109,10.17 -31.08016,15.80515 -48.00298,15.63691 -1.71507,-0.017 -3.45848,-0.0585 -3.87425,-0.092 z m 11.62247,-14.82108 c 1.19519,-0.10441 3.47986,-0.44631 5.07705,-0.75977 15.84939,-3.11057 29.48183,-11.4916 39.38743,-24.21481 6.10505,-7.84161 10.37412,-17.34957 12.41171,-27.64302 0.68047,-3.43754 0.90032,-5.63545 1.05863,-10.58333 0.42891,-13.40533 -3.28107,-26.34725 -10.782,-37.611996 -10.81221,-16.237571 -27.89091,-26.68352 -47.15253,-28.840178 -2.85431,-0.319588 -11.55434,-0.321418 -14.36309,-0.003 -28.167163,3.192981 -51.148696,24.192073 -56.699663,51.808624 -1.17788,5.86006 -1.513083,10.84063 -1.147508,17.05011 0.256961,4.36459 0.688933,7.22788 1.718749,11.3926 2.398832,9.7012 6.181826,17.46793 12.242866,25.13541 2.232427,2.82412 8.171453,8.75285 10.81264,10.7939 8.27048,6.39124 17.748752,10.71158 27.875743,12.70617 2.044507,0.40269 6.169963,0.94026 7.843003,1.02199 2.00854,0.0981 9.56731,-0.0649 11.71697,-0.25267 z m -11.43348,15.00537 c -0.62367,-0.0318 -2.4096,-0.19051 -3.968754,-0.35272 -15.305394,-1.5923 -29.695947,-7.5078 -41.860864,-17.20766 -3.27873,-2.61434 -9.556139,-8.89174 -12.170478,-12.17047 -9.695053,-12.15889 -15.40922,-26.03413 -17.239356,-41.86087 -0.454827,-3.93328 -0.454827,-12.50868 0,-16.44196 1.176798,-10.17679 3.739187,-18.88248 8.149894,-27.689194 2.497378,-4.986435 5.479997,-9.633339 9.109853,-14.193112 2.590617,-3.254293 8.872379,-9.535512 12.150087,-12.149034 12.15889,-9.695053 26.034124,-15.409222 41.860864,-17.239356 3.933284,-0.454829 12.508674,-0.454829 16.441964,0 13.47636,1.558346 25.29098,5.822254 36.09672,13.027348 8.00852,5.339942 15.89415,13.037724 21.12854,20.625218 3.27061,4.740894 6.6255,10.902809 8.60328,15.80161 4.36071,10.80111 6.38038,22.79471 5.73445,34.0535 -0.34395,5.99513 -0.94696,10.0131 -2.33021,15.52656 -1.50269,5.98951 -3.30049,10.76903 -6.2268,16.55417 -3.87234,7.65537 -8.0782,13.51814 -14.1509,19.7257 -6.60875,6.75549 -13.14138,11.51829 -21.5463,15.70892 -12.29648,6.13094 -26.00082,8.98375 -39.78199,8.28135 z m 12.6622,-15.26145 c 11.40253,-1.60771 21.77605,-5.83653 30.61132,-12.47889 14.07595,-10.58229 23.01504,-25.86869 25.53261,-43.66239 0.40788,-2.88278 0.56628,-10.93162 0.27774,-14.11288 -0.75793,-8.35656 -3.00166,-16.22106 -6.73477,-23.60599 -9.30379,-18.404987 -26.80588,-31.357534 -47.08631,-34.846566 -6.65165,-1.144346 -15.35311,-1.144693 -22.021131,-7.93e-4 -18.187836,3.119898 -34.347607,13.978008 -44.190663,29.692692 -5.449226,8.699827 -8.752668,18.628117 -9.632092,28.948677 -0.319622,3.75096 -0.13357,11.04143 0.367421,14.39741 2.198833,14.72927 8.465484,27.21809 18.750037,37.36699 2.869721,2.83188 4.824065,4.49365 7.823753,6.65252 8.787436,6.32429 19.940214,10.62314 30.427082,11.72813 1.143383,0.12047 2.248963,0.2487 2.456843,0.28494 0.20789,0.0362 2.80175,0.0412 5.76414,0.011 3.77128,-0.0385 6.06611,-0.15082 7.65402,-0.37471 z M 76.265569,179.21124 c -0.1469,-0.78303 0.0841,-71.77117 0.276995,-85.125438 0.06706,-4.642831 0.181186,-8.500742 0.253605,-8.573137 0.139716,-0.139671 6.109266,2.884344 11.65502,5.904121 18.177551,9.898054 69.205971,39.036124 71.609601,40.890264 l 0.43052,0.3321 -1.56445,0.93777 c -5.27275,3.16064 -82.078721,46.34102 -82.427871,46.34102 -0.05546,0 -0.160504,-0.31802 -0.23342,-0.7067 z m -0.181856,-0.19377 c -0.07579,-0.70009 -0.073,-18.19678 0.0062,-38.88153 0.146706,-38.31378 0.296111,-54.780282 0.498869,-54.982894 0.140576,-0.140473 7.654875,3.743703 13.910204,7.190245 22.025764,12.135689 67.859784,38.346429 69.793534,39.912279 l 0.43485,0.35213 -0.64304,0.47963 c -0.35368,0.26381 -4.25744,2.52019 -8.67504,5.0142 -25.14288,14.19469 -72.894299,41.00607 -74.588304,41.87969 l -0.599467,0.30915 z m -0.202637,-44.59569 c 0.101542,-25.49135 0.26933,-47.108168 0.372861,-48.037364 l 0.188244,-1.689444 4.677216,2.38701 c 6.378522,3.25527 20.967413,11.386839 46.389193,25.856438 23.59368,13.42908 33.52439,19.24482 33.52439,19.63292 0,0.12731 -0.69156,0.64808 -1.5368,1.15727 -3.00336,1.8093 -82.738161,46.63373 -83.415719,46.89374 -0.333354,0.12792 -0.359654,-5.96604 -0.199385,-46.20057 z m -0.3513,12.12669 c 0.02461,-37.03201 0.25849,-61.651554 0.588846,-61.98191 0.301344,-0.301345 7.216632,3.240598 17.161539,8.789971 27.184189,15.169089 66.563049,37.694369 68.014389,38.905199 0.51642,0.43085 0.39053,0.52778 -3.67199,2.82717 -16.93145,9.58323 -80.034554,45.06535 -81.514466,45.83461 l -0.601358,0.31259 z M 107.18953,53.995625 A 79.999998,79.999998 0 0 0 27.189758,133.9954 79.999998,79.999998 0 0 0 107.18953,213.99568 79.999998,79.999998 0 0 0 187.1893,133.9954 79.999998,79.999998 0 0 0 107.18953,53.995625 Z m 0,15.000118 A 64.999999,64.999999 0 0 1 172.18969,133.9954 64.999999,64.999999 0 0 1 107.18953,198.99556 64.999999,64.999999 0 0 1 42.189358,133.9954 64.999999,64.999999 0 0 1 107.18953,68.995743 Z M 76.040006,84.333308 c -0.07639,0.0096 -0.12105,0.04018 -0.139528,0.08837 -0.193852,0.505627 -0.434702,22.582992 -0.53485,49.061092 -0.100145,26.4781 -0.06173,48.07363 0.08526,47.98983 0.147,-0.0838 19.630903,-11.03101 43.297612,-24.32719 23.66672,-13.2962 43.18748,-24.3301 43.37928,-24.51944 0.19179,-0.18934 -19.05176,-11.31949 -42.76329,-24.73389 C 85.463686,88.713263 77.185922,84.188602 76.040006,84.333308 Z"
       inkscape:connector-curvature="0" />
  </g>
</svg>
